<svg id="svg2" xmlns:rdf="http://www.w3.org/1999/02/22-rdf-syntax-ns#" xmlns="http://www.w3.org/2000/svg" height="69.912" width="72.316" version="1.1" xmlns:cc="http://creativecommons.org/ns#" xmlns:dc="http://purl.org/dc/elements/1.1/" viewBox="0 0 72.316246 69.911789">
 <defs id="defs4">
  <style id="style6" type="text/css"/>
  <style id="style3003" type="text/css"/>
 </defs>
 <g id="layer1" transform="translate(-2286.3 550.59)">
  <g id="g6862" transform="matrix(.24266 0 0 -.23412 2206.2 -452.36)" stroke="#000">
   <g id="g6864" transform="matrix(.80322 0 0 .80550 331.14 120.72)"></g>
   <path id="path6868" d="m627.91 270.36c0 82.104-66.635 148.69-148.51 148.69-81.866 0-148.5-66.59-148.5-148.69 0-82.337 66.638-148.92 148.5-148.92 81.873 0 148.51 66.588 148.51 148.92z" fill="#529599"/>
   <path id="path6870" d="m549.85 240.53c0-59.67-47.84-78.524-70.451-78.524-22.603 0-70.443 18.854-70.443 78.524 0 59.905 47.84 137.95 70.443 137.95 22.611 0 70.451-78.045 70.451-137.95z" fill="#fff"/>
  </g>
 </g>
</svg>
