<svg id="svg2" xmlns:rdf="http://www.w3.org/1999/02/22-rdf-syntax-ns#" xmlns="http://www.w3.org/2000/svg" height="29.807" viewBox="0 0 113.6659 29.807449" width="113.67" version="1.1" xmlns:cc="http://creativecommons.org/ns#" xmlns:dc="http://purl.org/dc/elements/1.1/">
 <defs id="defs4">
  <style id="style6" type="text/css"/>
  <style id="style3003" type="text/css"/>
 </defs>
 <g id="text16553" fill="#529599">
  <path id="path3350" style="" d="m51.339 26.2q-2.8944 0-5.0349-1.0459-2.1404-1.0702-3.2836-3.0161-1.1432-1.9458-1.1432-4.5241 0-3.5755 1.3378-6.3483 1.3621-2.7728 3.6728-4.2808 2.3107-1.5323 5.1322-1.5323 2.6269 0 3.989 1.3621 1.3621 1.3378 1.3621 3.5512 0 1.4837-0.53511 2.3837-0.51078 0.89995-1.4837 0.89995-0.68104 0-1.0702-0.3162-0.38917-0.3162-0.38917-0.92427 0-0.21891 0.09729-0.80266 0.14594-0.72969 0.14594-1.1675 0-2.2134-2.3593-2.2134-1.6053 0-3.0647 1.0459t-2.3593 3.089q-0.89995 2.0188-0.89995 4.816 0 2.9188 1.6296 4.5241 1.6296 1.581 4.816 1.581 1.581 0 3.1863-0.38917 1.6296-0.41349 3.5998-1.2405 0.36484-0.14594 0.60808-0.14594 0.38917 0 0.58375 0.29188t0.19458 0.75401q0 1.4837-1.6053 2.1891-1.7269 0.75401-3.5998 1.1189-1.8485 0.34052-3.5268 0.34052z"/>
  <path id="path3352" style="" d="m61.397 13.139q-1.0216 0-1.5323-0.46214-0.51078-0.48646-0.51078-1.3378 0-0.8513 0.65672-1.4107 0.68104-0.58375 1.6783-0.58375 0.89995 0 1.4594 0.43781 0.55943 0.43781 0.55943 1.2405 0 0.97292-0.6324 1.5567-0.6324 0.55943-1.6783 0.55943zm-0.195 13.061q-1.581 0-2.3107-1.1189-0.70537-1.1189-0.70537-2.9674 0-1.0945 0.26755-2.7971 0.29188-1.7269 0.72969-3.2106 0.21891-0.77834 0.58375-1.0702 0.36484-0.29188 1.1675-0.29188 1.2405 0 1.2405 0.82698 0 0.60808-0.46214 2.8215-0.58375 2.6755-0.58375 3.6241 0 0.72969 0.19458 1.1189 0.19458 0.38917 0.65672 0.38917 0.43781 0 1.0945-0.60808 0.65672-0.60808 1.7513-1.9215 0.29188-0.34052 0.65672-0.34052 0.3162 0 0.48646 0.29188 0.19458 0.29188 0.19458 0.80266 0 0.97292-0.46214 1.508-2.408 2.9431-4.4998 2.9431z"/>
  <path id="path3354" style="" d="m68.842 26.2q-2.3837 0-3.7214-1.3378-1.3134-1.3621-1.3134-3.5755 0-1.9702 0.77834-3.4539t2.0188-2.2864q1.2405-0.80266 2.6026-0.80266 1.3378 0 2.0675 0.80266 0.75401 0.77834 0.75401 2.0188 0 1.0216-0.46214 1.7269-0.43781 0.70537-1.1675 0.70537-0.46214 0-0.75401-0.21891-0.26755-0.21891-0.26755-0.60808 0-0.17026 0.04865-0.38917t0.07297-0.3162q0.12162-0.36484 0.12162-0.68104t-0.17026-0.48646q-0.14594-0.17026-0.43781-0.17026-0.55943 0-1.0459 0.51078-0.48646 0.48646-0.77834 1.3378-0.29188 0.8513-0.29188 1.8729 0 2.8215 2.4566 2.8215 0.99724 0 2.1404-0.65672 1.1675-0.68104 2.2864-2.0188 0.29188-0.34052 0.65672-0.34052 0.3162 0 0.48646 0.29188 0.19458 0.29188 0.19458 0.80266 0 0.92427-0.46214 1.508-1.1432 1.4107-2.7485 2.1891-1.581 0.75401-3.0647 0.75401z"/>
  <path id="path3356" style="" d="m85.532 18.612q0.3162 0 0.48646 0.3162t0.17026 0.80266q0 1.1675-0.70537 1.3864-1.4594 0.51078-3.2106 0.58375-0.46214 2.0431-1.8242 3.2836-1.3621 1.2162-3.089 1.2162-1.4594 0-2.5053-0.70537-1.0216-0.70537-1.5567-1.8729-0.53511-1.1675-0.53511-2.5296 0-1.8485 0.70537-3.2836 0.70537-1.4594 1.9458-2.262 1.2405-0.82698 2.7485-0.82698 1.8485 0 2.9674 1.2891 1.1432 1.2648 1.3378 3.1377 1.1432-0.07297 2.7242-0.48646 0.19458-0.04865 0.34052-0.04865zm-7.9779 5.0105q0.77834 0 1.3378-0.6324 0.58375-0.6324 0.77834-1.8242-0.75401-0.51078-1.1675-1.3378-0.38917-0.82698-0.38917-1.7513 0-0.38917 0.07297-0.77834h-0.12162q-0.97292 0-1.6296 0.9486-0.6324 0.92427-0.6324 2.6269 0 1.3378 0.51078 2.0431 0.53511 0.70537 1.2405 0.70537z"/>
  <path id="path3358" style="" d="m85.828 26.2q-0.92427 0-1.3134-0.97292-0.36484-0.97292-0.36484-3.1133 0-3.162 0.89995-6.0078 0.21891-0.70537 0.70537-1.0216 0.51078-0.34052 1.4107-0.34052 0.48646 0 0.68104 0.12162t0.19458 0.46214q0 0.38917-0.36484 1.7513-0.24323 0.97292-0.38917 1.7026-0.14594 0.72969-0.24323 1.7999 0.80266-2.0918 1.7999-3.4052t1.9458-1.8729q0.97292-0.55943 1.7756-0.55943 1.581 0 1.581 1.581 0 0.9486-0.53511 3.4295-0.46214 2.1161-0.46214 2.7971 0 0.97292 0.70537 0.97292 0.48646 0 1.1432-0.58375 0.68104-0.60808 1.7999-1.9458 0.29188-0.34052 0.65672-0.34052 0.3162 0 0.48646 0.29188 0.19458 0.29188 0.19458 0.80266 0 0.97292-0.46214 1.508-1.0459 1.2891-2.262 2.1161-1.1918 0.82698-2.7242 0.82698-1.2405 0-1.8729-0.70537-0.6324-0.72969-0.6324-2.0918 0-0.68104 0.34052-2.4323 0.3162-1.5323 0.3162-2.1161 0-0.38917-0.26755-0.38917-0.3162 0-0.89995 0.82698-0.55943 0.80266-1.1675 2.1404-0.58375 1.3378-0.9486 2.8215-0.26755 1.1432-0.6324 1.5567-0.34052 0.38917-1.0945 0.38917z"/>
  <path id="path3360" style="" d="m99.401 13.139q-1.0216 0-1.5323-0.46214-0.51078-0.48646-0.51078-1.3378 0-0.8513 0.65672-1.4107 0.68104-0.58375 1.6783-0.58375 0.89995 0 1.4594 0.43781 0.55943 0.43781 0.55943 1.2405 0 0.97292-0.6324 1.5567-0.6324 0.55943-1.6783 0.55943zm-0.19458 13.061q-1.581 0-2.3107-1.1189-0.70537-1.1189-0.70537-2.9674 0-1.0945 0.26755-2.7971 0.29188-1.7269 0.72969-3.2106 0.21891-0.77834 0.58375-1.0702 0.36484-0.29188 1.1675-0.29188 1.2405 0 1.2405 0.82698 0 0.60808-0.46214 2.8215-0.58375 2.6755-0.58375 3.6241 0 0.72969 0.19458 1.1189 0.19458 0.38917 0.65672 0.38917 0.43782 0 1.0945-0.60808 0.65672-0.60808 1.7512-1.9215 0.29188-0.34052 0.65672-0.34052 0.3162 0 0.48646 0.29188 0.19459 0.29188 0.19459 0.80266 0 0.97292-0.46214 1.508-2.408 2.9431-4.4998 2.9431z"/>
  <path id="path3362" style="" d="m105 26.2q-1.3864 0-2.262-1.0945-0.8513-1.0945-0.8513-2.8701 0-1.9458 0.89995-3.6728 0.89995-1.7513 2.3836-2.7971 1.508-1.0702 3.1863-1.0702 0.53511 0 0.70537 0.21891 0.19458 0.19458 0.3162 0.72969 0.46214-0.09729 1.0216-0.09729 0.58375 0 0.89995 0.29188t0.3162 0.82698q0 0.55943-0.24323 1.9458-0.26756 1.4837-0.4135 2.8458-0.14593 1.3378-0.14593 3.0161 0 0.92427-0.38917 1.3378-0.36485 0.38917-1.2162 0.38917-0.82698 0-1.2405-0.38917-0.38917-0.41349-0.38917-1.3134l0.0243-0.38917q-0.75401 2.0918-2.6026 2.0918zm0.9486-2.4566q0.68104 0 1.2405-0.9486 0.55943-0.9486 0.99724-3.3809l0.46214-2.4566q-0.99724 0.02432-1.8486 0.77834-0.8513 0.72969-1.3621 1.9458-0.51078 1.2162-0.51078 2.5782 0 0.72969 0.26755 1.1189 0.29188 0.36484 0.75402 0.36484z"/>
 </g>
 <g id="g16557" transform="matrix(.10346 0 0 -.099818 -34.19 41.9)">
  <path id="path16563" fill="#529599" d="m627.91 270.36c0 82.104-66.635 148.69-148.51 148.69-81.866 0-148.5-66.59-148.5-148.69 0-82.337 66.638-148.92 148.5-148.92 81.873 0 148.51 66.588 148.51 148.92z"/>
  <path id="path16565" fill="#fff" d="m549.85 240.53c0-59.67-47.84-78.524-70.451-78.524-22.603 0-70.443 18.854-70.443 78.524 0 59.905 47.84 137.95 70.443 137.95 22.611 0 70.451-78.045 70.451-137.95z"/>
 </g>
</svg>
